<svg xmlns="http://www.w3.org/2000/svg" viewBox="0 0 108.83 119.99"><defs><style>.cls-1{fill:#f7f7f7;}</style></defs><title>Ресурс 3</title><g id="Слой_2"><g id="Слой_1-2" ><polygon class="cls-1" points="97.29 62.49 22.45 84.16 13.69 67.68 81.01 31.88 97.29 62.49"/><polygon class="cls-1" points="108.83 84.19 41.5 119.99 30.8 99.87 105.64 78.2 108.83 84.19"/><path class="cls-1" d="M1.55,32.2H84.38a3.35,3.35,0,0,1,3.35,3.35V50.87a0,0,0,0,1,0,0H-1.8a0,0,0,0,1,0,0V35.56A3.35,3.35,0,0,1,1.55,32.2Z" transform="translate(-14.47 25.03) rotate(-28)"/><path class="cls-1" d="M1.47,37.38A9.43,9.43,0,0,0,11.66,46c5.2-.43,27.69-6.56,27.25-11.76s-23.63-7.48-28.83-7A9.44,9.44,0,0,0,1.47,37.38Zm32-2.69c.33,4-16.87,8.65-20.84,9a7.21,7.21,0,0,1-1.2-14.38C15.44,29,33.17,30.72,33.51,34.69Z"/><path class="cls-1" d="M49.46,6.25c-3.27,4.06-14.34,24.57-10.28,27.84s21.72-12,25-16A9.44,9.44,0,0,0,49.46,6.25Zm1,2.33a7.22,7.22,0,1,1,11.25,9c-2.5,3.11-16,14.74-19.1,12.24S47.94,11.68,50.43,8.58Z"/><path class="cls-1" d="M38.75,33.61l-.88-9.24a83.6,83.6,0,0,1,0-15.58L38.72,0,31,3.61Z"/><path class="cls-1" d="M38.75,33.61,28.79,26a112.37,112.37,0,0,0-18-11.29L0,9.25,10.37,3.3Z"/></g></g></svg>