<svg xmlns="http://www.w3.org/2000/svg" viewBox="0 0 491.58 193.85"><defs><style>.cls-1{fill:#f7f7f7;}.cls-2{fill:#ebe04c;}.cls-3{fill:#b7a644;}.cls-4{fill:#b2b2b2;}</style></defs><title>Ресурс 2</title><g id="Слой_2" ><g id="Слой_1-2"><path class="cls-1" d="M404.19,51.65c6.11,6.11,19.63,29.54,13.52,35.65s-29.54-7.41-35.65-13.52a15.65,15.65,0,0,1,22.13-22.13Z"/><path class="cls-1" d="M434.33,51.65c-6.11,6.11-19.63,29.54-13.52,35.65s29.54-7.41,35.65-13.52a15.65,15.65,0,0,0-22.13-22.13Z"/><rect class="cls-2" x="362.02" y="113.66" width="114.48" height="80.19"/><rect class="cls-2" x="346.95" y="84.3" width="144.63" height="29.35"/><rect class="cls-3" x="362.02" y="113.66" width="114.48" height="6.08"/><rect class="cls-1" x="411.94" y="119.74" width="14.64" height="74.11"/><rect class="cls-4" x="411.94" y="113.66" width="14.64" height="6.08"/><rect class="cls-1" x="411.94" y="84.3" width="14.64" height="29.35"/><path class="cls-1" d="M216.88,6.05c8.07,8.07,25.93,39,17.86,47.08s-39-9.78-47.09-17.85A20.67,20.67,0,1,1,216.88,6.05Z"/><path class="cls-1" d="M256.68,6.05c-8.07,8.07-25.92,39-17.85,47.08s39-9.78,47.08-17.85A20.67,20.67,0,0,0,256.68,6.05Z"/><rect class="cls-2" x="161.19" y="87.94" width="151.19" height="105.9"/><rect class="cls-2" x="141.28" y="49.18" width="191" height="38.76"/><rect class="cls-3" x="161.19" y="87.94" width="151.19" height="8.03"/><rect class="cls-1" x="227.12" y="95.97" width="19.33" height="97.88"/><rect class="cls-4" x="227.12" y="87.94" width="19.33" height="8.03"/><rect class="cls-1" x="227.12" y="49.18" width="19.33" height="38.76"/><path class="cls-1" d="M49.1,71.27c5.24,5.24,16.83,25.33,11.59,30.58s-25.33-6.36-30.57-11.6a13.42,13.42,0,1,1,19-19Z"/><path class="cls-1" d="M75,71.27c-5.25,5.24-16.84,25.33-11.6,30.58s25.34-6.36,30.58-11.6a13.42,13.42,0,0,0-19-19Z"/><rect class="cls-2" x="12.93" y="124.45" width="98.19" height="68.78"/><rect class="cls-2" y="99.28" width="124.04" height="25.17"/><rect class="cls-3" x="12.93" y="124.45" width="98.19" height="5.21"/><rect class="cls-1" x="55.74" y="129.67" width="12.56" height="63.56"/><rect class="cls-4" x="55.74" y="124.45" width="12.56" height="5.21"/><rect class="cls-1" x="55.74" y="99.28" width="12.56" height="25.17"/></g></g></svg>